<svg width="175" height="19" viewBox="0 0 175 19" fill="none" xmlns="http://www.w3.org/2000/svg">
<path d="M5.26979 17.3476C6.58011 18.0122 8.05186 18.3446 9.68502 18.3446C11.2992 18.3446 12.7045 18.0027 13.9009 17.3191C15.1162 16.6354 15.9993 15.6859 16.55 14.4706L13.1033 12.5905C12.3247 13.9958 11.1758 14.6984 9.65654 14.6984C8.49813 14.6984 7.53912 14.3186 6.77951 13.559C6.0199 12.7994 5.6401 11.7644 5.6401 10.4541C5.6401 9.14378 6.0199 8.10882 6.77951 7.34921C7.53912 6.5896 8.49813 6.20979 9.65654 6.20979C11.1568 6.20979 12.3057 6.91243 13.1033 8.31771L16.55 6.46616C15.9993 5.2128 15.1162 4.25379 13.9009 3.58913C12.7045 2.90548 11.2992 2.56366 9.68502 2.56366C8.05186 2.56366 6.58011 2.90548 5.26979 3.58913C3.97845 4.25379 2.96247 5.18432 2.22185 6.3807C1.50022 7.57709 1.1394 8.93489 1.1394 10.4541C1.1394 11.9733 1.50022 13.3311 2.22185 14.5275C2.96247 15.7239 3.97845 16.6639 5.26979 17.3476Z" fill="black"/>
<path d="M43.4059 4.27278C42.2855 3.13337 40.7663 2.56366 38.8483 2.56366C37.7089 2.56366 36.6549 2.78205 35.6864 3.21882C34.7369 3.6556 33.9488 4.27278 33.3221 5.07037C32.7904 4.25379 32.0877 3.63661 31.2142 3.21882C30.3406 2.78205 29.3626 2.56366 28.2802 2.56366C27.2927 2.56366 26.3812 2.73457 25.5456 3.0764C24.729 3.41822 24.0359 3.91197 23.4662 4.55764V2.79154H19.2218V18.1167H23.6656V10.4256C23.6656 9.09631 23.9694 8.09932 24.5771 7.43466C25.1848 6.75101 26.0014 6.40919 27.0268 6.40919C28.9638 6.40919 29.9323 7.61507 29.9323 10.0268V18.1167H34.3761V10.4256C34.3761 9.09631 34.6799 8.09932 35.2876 7.43466C35.8953 6.75101 36.7214 6.40919 37.7658 6.40919C38.6964 6.40919 39.4085 6.71303 39.9022 7.32072C40.415 7.90942 40.6713 8.81146 40.6713 10.0268V18.1167H45.1151V9.34318C45.1151 7.08334 44.5454 5.39321 43.4059 4.27278Z" fill="black"/>
<path fill-rule="evenodd" clip-rule="evenodd" d="M56.1658 18.3446C54.5517 18.3446 53.0989 18.0122 51.8076 17.3476C50.5352 16.6639 49.5382 15.7239 48.8166 14.5275C48.095 13.3311 47.7342 11.9733 47.7342 10.4541C47.7342 8.93489 48.095 7.57709 48.8166 6.3807C49.5382 5.18432 50.5352 4.25379 51.8076 3.58913C53.0989 2.90548 54.5517 2.56366 56.1658 2.56366C57.78 2.56366 59.2233 2.90548 60.4956 3.58913C61.768 4.25379 62.7649 5.18432 63.4866 6.3807C64.2082 7.57709 64.569 8.93489 64.569 10.4541C64.569 11.9733 64.2082 13.3311 63.4866 14.5275C62.7649 15.7239 61.768 16.6639 60.4956 17.3476C59.2233 18.0122 57.78 18.3446 56.1658 18.3446Z" fill="black"/>
<path fill-rule="evenodd" clip-rule="evenodd" d="M79.7602 3.53216C78.5448 2.88649 77.1206 2.56366 75.4874 2.56366C73.7973 2.56366 72.316 2.89599 71.0437 3.56065C69.7713 4.22531 68.7838 5.15583 68.0812 6.35222C67.3785 7.5486 67.0272 8.93489 67.0272 10.5111V18.3731H71.4709V16.493C72.5724 17.7274 74.1011 18.3446 76.0571 18.3446C77.5383 18.3446 78.8487 18.0217 79.9881 17.3761C81.1275 16.7114 82.0105 15.7904 82.6372 14.613C83.2639 13.4166 83.5772 12.0398 83.5772 10.4826C83.5772 8.88742 83.2449 7.49163 82.5802 6.29525C81.9156 5.09886 80.9756 4.17783 79.7602 3.53216ZM78.108 13.5305C77.3864 14.3091 76.4464 14.6984 75.288 14.6984C74.1106 14.6984 73.1706 14.3091 72.4679 13.5305C71.7653 12.7519 71.414 11.7265 71.414 10.4541C71.414 9.18177 71.7653 8.15629 72.4679 7.37769C73.1896 6.59909 74.1296 6.20979 75.288 6.20979C76.4464 6.20979 77.3864 6.60859 78.108 7.40618C78.8297 8.18478 79.1905 9.21025 79.1905 10.4826C79.1905 11.736 78.8297 12.7519 78.108 13.5305Z" fill="black"/>
<path d="M101.834 2.79154V18.1167H97.5898V16.3221C97.0201 16.9868 96.3175 17.49 95.4819 17.8318C94.6653 18.1737 93.7918 18.3446 92.8613 18.3446C90.8483 18.3446 89.2436 17.7654 88.0472 16.607C86.8698 15.4486 86.2811 13.7299 86.2811 11.4511V2.79154H90.7248V10.7959C90.7248 13.2647 91.7598 14.499 93.8298 14.499C94.9122 14.499 95.7763 14.1572 96.4219 13.4736C97.0676 12.7709 97.3904 11.736 97.3904 10.3687V2.79154H101.834Z" fill="black"/>
<path fill-rule="evenodd" clip-rule="evenodd" d="M120.483 13.7584C120.483 11.9354 119.581 10.72 117.777 10.1123C118.499 9.78945 119.049 9.34318 119.429 8.77348C119.828 8.18478 120.027 7.51062 120.027 6.75101C120.027 5.49765 119.486 4.52915 118.404 3.8455C117.321 3.14286 115.821 2.79154 113.903 2.79154H106.07V18.1167H114.245C116.315 18.1167 117.872 17.7369 118.916 16.9773C119.961 16.2177 120.483 15.1447 120.483 13.7584Z" fill="black"/>
<path fill-rule="evenodd" clip-rule="evenodd" d="M153.895 3.53216C152.679 2.88649 151.255 2.56366 149.622 2.56366C147.932 2.56366 146.45 2.89599 145.178 3.56065C143.906 4.22531 142.918 5.15583 142.216 6.35222C141.513 7.5486 141.162 8.93489 141.162 10.5111L141.117 18.3446H145.56L145.605 16.493C146.707 17.7274 148.235 18.3446 150.191 18.3446C151.673 18.3446 152.983 18.0217 154.122 17.3761C155.262 16.7114 156.145 15.7904 156.772 14.613C157.398 13.4166 157.712 12.0398 157.712 10.4826C157.712 8.88742 157.379 7.49163 156.715 6.29525C156.05 5.09886 155.11 4.17783 153.895 3.53216ZM152.242 13.5305C151.521 14.3091 150.581 14.6984 149.422 14.6984C148.245 14.6984 147.305 14.3091 146.602 13.5305C145.9 12.7519 145.548 11.7265 145.548 10.4541C145.548 9.18177 145.9 8.15629 146.602 7.37769C147.324 6.59909 148.264 6.20979 149.422 6.20979C150.581 6.20979 151.521 6.60859 152.242 7.40618C152.964 8.18478 153.325 9.21025 153.325 10.4826C153.325 11.736 152.964 12.7519 152.242 13.5305Z" fill="black"/>
<path d="M168.135 18.3446C166.502 18.3446 165.03 18.0122 163.72 17.3476C162.428 16.6639 161.412 15.7239 160.672 14.5275C159.95 13.3311 159.589 11.9733 159.589 10.4541C159.589 8.93489 159.95 7.57709 160.672 6.3807C161.412 5.18432 162.428 4.25379 163.72 3.58913C165.03 2.90548 166.502 2.56366 168.135 2.56366C169.749 2.56366 171.154 2.90548 172.351 3.58913C173.566 4.25379 174.449 5.2128 175 6.46616L171.553 8.31771C170.756 6.91243 169.607 6.20979 168.107 6.20979C166.948 6.20979 165.989 6.5896 165.229 7.34921C164.47 8.10882 164.09 9.14378 164.09 10.4541C164.09 11.7644 164.47 12.7994 165.229 13.559C165.989 14.3186 166.948 14.6984 168.107 14.6984C169.626 14.6984 170.775 13.9958 171.553 12.5905L175 14.4706C174.449 15.6859 173.566 16.6354 172.351 17.3191C171.154 18.0027 169.749 18.3446 168.135 18.3446Z" fill="black"/>
<path d="M131.521 14.9548C132.319 14.9548 133.021 14.8409 133.629 14.613C134.256 14.3661 134.835 13.9863 135.367 13.4736L137.731 16.0372C136.288 17.6894 134.18 18.5155 131.407 18.5155C129.679 18.5155 128.151 18.1831 126.821 17.5185C125.492 16.8348 124.466 15.8948 123.745 14.6984C123.023 13.502 122.662 12.1442 122.662 10.625C122.662 9.12479 123.014 7.77648 123.716 6.58009C124.438 5.36472 125.416 4.4247 126.65 3.76004C127.904 3.07639 129.309 2.73457 130.866 2.73457C132.328 2.73457 133.658 3.0479 134.854 3.67458C136.05 4.28227 137 5.17481 137.703 6.35221C138.424 7.51062 138.785 8.88741 138.785 10.4826L127.448 12.676C127.771 13.4356 128.274 14.0053 128.958 14.3851C129.66 14.7649 130.515 14.9548 131.521 14.9548Z" fill="black"/>
<path d="M4.13038 14.7839C5.44071 15.4486 6.91246 15.7809 8.54562 15.7809C10.1598 15.7809 11.5651 15.4391 12.7615 14.7554C13.9768 14.0718 14.8599 13.1223 15.4106 11.9069L11.9639 10.0269C11.1853 11.4321 10.0364 12.1348 8.51713 12.1348C7.35873 12.1348 6.39972 11.755 5.64011 10.9954C4.8805 10.2358 4.50069 9.20079 4.50069 7.89046C4.50069 6.58013 4.8805 5.54516 5.64011 4.78555C6.39972 4.02594 7.35873 3.64613 8.51713 3.64613C10.0174 3.64613 11.1663 4.34877 11.9639 5.75405L15.4106 3.9025C14.8599 2.64914 13.9768 1.69013 12.7615 1.02547C11.5651 0.341824 10.1598 0 8.54562 0C6.91246 0 5.44071 0.341824 4.13038 1.02547C2.83904 1.69013 1.82307 2.62066 1.08244 3.81704C0.360815 5.01343 0 6.37124 0 7.89046C0 9.40968 0.360815 10.7675 1.08244 11.9639C1.82307 13.1603 2.83904 14.1003 4.13038 14.7839Z" fill="white"/>
<path d="M42.2665 1.70912C41.1461 0.569708 39.6269 0 37.7089 0C36.5695 0 35.5155 0.218388 34.547 0.655164C33.5975 1.09194 32.8094 1.70912 32.1827 2.50672C31.651 1.69013 30.9483 1.07295 30.0748 0.655164C29.2012 0.218388 28.2232 0 27.1408 0C26.1533 0 25.2418 0.170913 24.4062 0.512738C23.5896 0.854561 22.8965 1.34831 22.3268 1.99398V0.227882H18.0824V15.553H22.5262V7.86197C22.5262 6.53265 22.83 5.53566 23.4377 4.871C24.0454 4.18735 24.862 3.84553 25.8874 3.84553C27.8244 3.84553 28.7929 5.05141 28.7929 7.46318V15.553H33.2367V7.86197C33.2367 6.53265 33.5405 5.53566 34.1482 4.871C34.7559 4.18735 35.582 3.84553 36.6264 3.84553C37.557 3.84553 38.2691 4.14937 38.7628 4.75706C39.2756 5.34576 39.5319 6.2478 39.5319 7.46318V15.553H43.9757V6.77953C43.9757 4.51968 43.4059 2.82955 42.2665 1.70912Z" fill="white"/>
<path fill-rule="evenodd" clip-rule="evenodd" d="M55.0264 15.7809C53.4123 15.7809 51.9595 15.4486 50.6682 14.7839C49.3958 14.1003 48.3988 13.1603 47.6772 11.9639C46.9556 10.7675 46.5948 9.40968 46.5948 7.89046C46.5948 6.37124 46.9556 5.01343 47.6772 3.81704C48.3988 2.62066 49.3958 1.69013 50.6682 1.02547C51.9595 0.341824 53.4123 0 55.0264 0C56.6406 0 58.0839 0.341824 59.3562 1.02547C60.6286 1.69013 61.6255 2.62066 62.3472 3.81704C63.0688 5.01343 63.4296 6.37124 63.4296 7.89046C63.4296 9.40968 63.0688 10.7675 62.3472 11.9639C61.6255 13.1603 60.6286 14.1003 59.3562 14.7839C58.0839 15.4486 56.6406 15.7809 55.0264 15.7809ZM54.7724 2.4312C54.8007 2.35316 54.8524 2.28574 54.9204 2.23809C54.9883 2.19044 55.0693 2.16488 55.1524 2.16488C55.2354 2.16488 55.3164 2.19044 55.3844 2.23809C55.4523 2.28574 55.504 2.35316 55.5323 2.4312L55.9188 3.48703C56.2215 4.31497 56.7012 5.06685 57.3245 5.69018C57.9479 6.31351 58.6998 6.79327 59.5277 7.09596L60.5827 7.4824C60.6608 7.51072 60.7282 7.56239 60.7758 7.63037C60.8235 7.69835 60.849 7.77935 60.849 7.86237C60.849 7.94539 60.8235 8.02639 60.7758 8.09437C60.7282 8.16236 60.6608 8.21402 60.5827 8.24234L59.5277 8.62878C58.6998 8.93147 57.9479 9.41123 57.3245 10.0346C56.7012 10.6579 56.2215 11.4098 55.9188 12.2377L55.5323 13.2927C55.504 13.3708 55.4523 13.4382 55.3844 13.4858C55.3164 13.5335 55.2354 13.559 55.1524 13.559C55.0693 13.559 54.9883 13.5335 54.9204 13.4858C54.8524 13.4382 54.8007 13.3708 54.7724 13.2927L54.3859 12.2377C54.0833 11.4098 53.6035 10.6579 52.9802 10.0346C52.3568 9.41123 51.6049 8.93147 50.777 8.62878L49.7212 8.24234C49.6432 8.21402 49.5757 8.16236 49.5281 8.09437C49.4804 8.02639 49.4549 7.94539 49.4549 7.86237C49.4549 7.77935 49.4804 7.69835 49.5281 7.63037C49.5757 7.56239 49.6432 7.51072 49.7212 7.4824L50.777 7.09596C51.6049 6.79327 52.3568 6.31351 52.9802 5.69018C53.6035 5.06685 54.0833 4.31497 54.3859 3.48703L54.7724 2.4312Z" fill="white"/>
<path fill-rule="evenodd" clip-rule="evenodd" d="M78.6208 0.968503C77.4054 0.322834 75.9811 0 74.348 0C72.6579 0 71.1766 0.332329 69.9043 0.996988C68.6319 1.66165 67.6444 2.59217 66.9418 3.78856C66.2391 4.98495 65.8878 6.37124 65.8878 7.94743V17H70.3315V13.9294C71.433 15.1637 72.9617 15.7809 74.9177 15.7809C76.3989 15.7809 77.7093 15.4581 78.8487 14.8124C79.9881 14.1478 80.8711 13.2267 81.4978 12.0493C82.1245 10.8529 82.4378 9.47614 82.4378 7.91894C82.4378 6.32376 82.1055 4.92798 81.4408 3.73159C80.7762 2.5352 79.8362 1.61417 78.6208 0.968503ZM76.9686 10.9669C76.247 11.7455 75.307 12.1348 74.1486 12.1348C72.9712 12.1348 72.0312 11.7455 71.3285 10.9669C70.6259 10.1883 70.2746 9.16281 70.2746 7.89046C70.2746 6.61811 70.6259 5.59263 71.3285 4.81403C72.0502 4.03543 72.9902 3.64613 74.1486 3.64613C75.307 3.64613 76.247 4.04493 76.9686 4.84252C77.6903 5.62112 78.0511 6.64659 78.0511 7.91894C78.0511 9.1723 77.6903 10.1883 76.9686 10.9669Z" fill="white"/>
<path d="M100.695 0.227882V15.553H96.4504V13.7585C95.8807 14.4231 95.1781 14.9264 94.3425 15.2682C93.5259 15.61 92.6524 15.7809 91.7218 15.7809C89.7089 15.7809 88.1042 15.2017 86.9078 14.0433C85.7304 12.8849 85.1417 11.1663 85.1417 8.88745V0.227882H89.5854V8.23228C89.5854 10.701 90.6204 11.9354 92.6903 11.9354C93.7728 11.9354 94.6368 11.5936 95.2825 10.9099C95.9282 10.2073 96.251 9.1723 96.251 7.805V0.227882H100.695Z" fill="white"/>
<path fill-rule="evenodd" clip-rule="evenodd" d="M119.344 11.1948C119.344 9.3717 118.442 8.15632 116.638 7.54863C117.359 7.2258 117.91 6.77953 118.29 6.20982C118.689 5.62112 118.888 4.94697 118.888 4.18735C118.888 2.934 118.347 1.96549 117.264 1.28184C116.182 0.579202 114.682 0.227882 112.764 0.227882H104.93V15.553H113.105C115.175 15.553 116.733 15.1732 117.777 14.4136C118.822 13.654 119.344 12.5811 119.344 11.1948ZM112.365 6.52316H109.004V3.24734H112.365C113.922 3.24734 114.701 3.78856 114.701 4.871C114.701 5.97244 113.922 6.52316 112.365 6.52316ZM115.185 10.8529C115.185 11.9734 114.368 12.5336 112.735 12.5336H109.004V9.14382H112.821C113.637 9.14382 114.235 9.28624 114.615 9.5711C114.995 9.83696 115.185 10.2642 115.185 10.8529Z" fill="white"/>
<path fill-rule="evenodd" clip-rule="evenodd" d="M152.755 0.968503C151.54 0.322834 150.115 0 148.482 0C146.792 0 145.311 0.332329 144.039 0.996988C142.766 1.66165 141.779 2.59217 141.076 3.78856C140.373 4.98495 140.022 6.37124 140.022 7.94743V17H144.466V13.9294C145.567 15.1637 147.096 15.7809 149.052 15.7809C150.533 15.7809 151.844 15.4581 152.983 14.8124C154.122 14.1478 155.005 13.2267 155.632 12.0493C156.259 10.8529 156.572 9.47614 156.572 7.91894C156.572 6.32376 156.24 4.92798 155.575 3.73159C154.911 2.5352 153.971 1.61417 152.755 0.968503ZM151.103 10.9669C150.381 11.7455 149.441 12.1348 148.283 12.1348C147.106 12.1348 146.166 11.7455 145.463 10.9669C144.76 10.1883 144.409 9.16281 144.409 7.89046C144.409 6.61811 144.76 5.59263 145.463 4.81403C146.185 4.03543 147.125 3.64613 148.283 3.64613C149.441 3.64613 150.381 4.04493 151.103 4.84252C151.825 5.62112 152.185 6.64659 152.185 7.91894C152.185 9.1723 151.825 10.1883 151.103 10.9669Z" fill="white"/>
<path d="M166.996 15.7809C165.362 15.7809 163.891 15.4486 162.58 14.7839C161.289 14.1003 160.273 13.1603 159.532 11.9639C158.811 10.7675 158.45 9.40968 158.45 7.89046C158.45 6.37124 158.811 5.01343 159.532 3.81704C160.273 2.62066 161.289 1.69013 162.58 1.02547C163.891 0.341824 165.362 0 166.996 0C168.61 0 170.015 0.341824 171.211 1.02547C172.427 1.69013 173.31 2.64914 173.861 3.9025L170.414 5.75405C169.616 4.34877 168.467 3.64613 166.967 3.64613C165.809 3.64613 164.85 4.02594 164.09 4.78555C163.33 5.54516 162.951 6.58013 162.951 7.89046C162.951 9.20079 163.33 10.2358 164.09 10.9954C164.85 11.755 165.809 12.1348 166.967 12.1348C168.486 12.1348 169.635 11.4321 170.414 10.0269L173.861 11.9069C173.31 13.1223 172.427 14.0718 171.211 14.7554C170.015 15.4391 168.61 15.7809 166.996 15.7809Z" fill="white"/>
<path d="M130.382 12.3911C131.179 12.3911 131.882 12.2772 132.49 12.0493C133.116 11.8024 133.696 11.4226 134.227 10.9099L136.592 13.4736C135.148 15.1257 133.041 15.9518 130.268 15.9518C128.54 15.9518 127.011 15.6195 125.682 14.9548C124.352 14.2712 123.327 13.3312 122.605 12.1348C121.884 10.9384 121.523 9.58059 121.523 8.06136C121.523 6.56113 121.874 5.21282 122.577 4.01644C123.299 2.80106 124.276 1.86104 125.511 1.19638C126.764 0.51273 128.169 0.170905 129.727 0.170905C131.189 0.170905 132.518 0.484245 133.715 1.11092C134.911 1.71861 135.861 2.61115 136.563 3.78855C137.285 4.94696 137.646 6.32375 137.646 7.91894L126.308 10.1123C126.631 10.8719 127.135 11.4416 127.818 11.8214C128.521 12.2012 129.375 12.3911 130.382 12.3911ZM129.727 3.53218C128.606 3.53218 127.695 3.893 126.992 4.61463C126.289 5.33626 125.919 6.33325 125.881 7.6056L133.344 6.15284C133.135 5.35525 132.708 4.71907 132.062 4.24432C131.417 3.76956 130.638 3.53218 129.727 3.53218Z" fill="white"/>
</svg>
