<svg width="35" height="24" viewBox="0 0 35 24" fill="none" xmlns="http://www.w3.org/2000/svg">
<path d="M14 16.9375L22.7581 11.875L14 6.8125V16.9375ZM33.5075 3.72438C33.7269 4.5175 33.8787 5.58062 33.98 6.93062C34.0981 8.28062 34.1488 9.445 34.1488 10.4575L34.25 11.875C34.25 15.5706 33.98 18.2875 33.5075 20.0256C33.0856 21.5444 32.1069 22.5231 30.5881 22.945C29.795 23.1644 28.3438 23.3162 26.1163 23.4175C23.9225 23.5356 21.9144 23.5863 20.0581 23.5863L17.375 23.6875C10.3044 23.6875 5.9 23.4175 4.16188 22.945C2.64313 22.5231 1.66438 21.5444 1.2425 20.0256C1.02313 19.2325 0.87125 18.1694 0.77 16.8194C0.651875 15.4694 0.60125 14.305 0.60125 13.2925L0.5 11.875C0.5 8.17937 0.77 5.4625 1.2425 3.72438C1.66438 2.20563 2.64313 1.22688 4.16188 0.805C4.955 0.585625 6.40625 0.43375 8.63375 0.3325C10.8275 0.214375 12.8356 0.16375 14.6919 0.16375L17.375 0.0625C24.4456 0.0625 28.85 0.3325 30.5881 0.805C32.1069 1.22688 33.0856 2.20563 33.5075 3.72438Z" fill="white"/>
</svg>
