<svg width="35" height="34" viewBox="0 0 35 34" fill="none" xmlns="http://www.w3.org/2000/svg">
<path d="M17.625 0C8.31 0 0.75 7.56 0.75 16.875C0.75 26.19 8.31 33.75 17.625 33.75C26.94 33.75 34.5 26.19 34.5 16.875C34.5 7.56 26.94 0 17.625 0ZM25.455 11.475C25.2019 14.1413 24.105 20.6213 23.5481 23.6081C23.3119 24.8737 22.8394 25.2956 22.4006 25.3463C21.4219 25.4306 20.6794 24.705 19.7344 24.0806C18.2494 23.1019 17.4056 22.4944 15.9713 21.5494C14.3006 20.4525 15.3806 19.845 16.3425 18.8663C16.5956 18.6131 20.9156 14.6812 21 14.3269C21.0117 14.2732 21.0102 14.2175 20.9955 14.1645C20.9808 14.1116 20.9533 14.0631 20.9156 14.0231C20.8144 13.9388 20.6794 13.9725 20.5612 13.9894C20.4094 14.0231 18.0469 15.5925 13.44 18.6975C12.765 19.1531 12.1575 19.3894 11.6175 19.3725C11.01 19.3556 9.8625 19.035 9.00187 18.7481C7.93875 18.4106 7.11188 18.225 7.17937 17.6344C7.21312 17.3306 7.635 17.0269 8.42813 16.7062C13.3556 14.5631 16.6294 13.1456 18.2663 12.4706C22.9575 10.5131 23.9194 10.1756 24.5606 10.1756C24.6956 10.1756 25.0163 10.2094 25.2188 10.3781C25.3875 10.5131 25.4381 10.6988 25.455 10.8337C25.4381 10.935 25.4719 11.2388 25.455 11.475Z" fill="white"/>
</svg>
