<svg width="34" height="34" viewBox="0 0 34 34" fill="none" xmlns="http://www.w3.org/2000/svg">
<path d="M22.0607 0H11.7062C2.24944 0 0 2.24944 0 11.6893V22.0438C0 31.4989 2.23256 33.75 11.6893 33.75H22.0438C31.4989 33.75 33.75 31.5174 33.75 22.0607V11.7062C33.75 2.24944 31.5174 0 22.0607 0ZM27.2464 24.0806H24.7843C23.8528 24.0806 23.5727 23.3263 21.9021 21.6557C20.4441 20.25 19.8281 20.0745 19.4586 20.0745C18.9489 20.0745 18.8089 20.2146 18.8089 20.9182V23.1323C18.8089 23.7313 18.6148 24.0823 17.0505 24.0823C15.5323 23.9803 14.0601 23.519 12.7551 22.7366C11.4501 21.9541 10.3497 20.8728 9.5445 19.5818C7.63285 17.2024 6.30271 14.4098 5.65988 11.4261C5.65988 11.0565 5.79994 10.7224 6.50363 10.7224H8.964C9.59681 10.7224 9.82462 11.0042 10.0727 11.6539C11.2674 15.1706 13.3059 18.2284 14.1328 18.2284C14.4501 18.2284 14.5884 18.0883 14.5884 17.2969V13.6755C14.4838 12.0234 13.6063 11.8834 13.6063 11.286C13.6176 11.1284 13.6898 10.9815 13.8076 10.8762C13.9254 10.771 14.0796 10.7158 14.2374 10.7224H18.1052C18.6334 10.7224 18.8089 10.9856 18.8089 11.6184V16.5054C18.8089 17.0336 19.0367 17.2091 19.1953 17.2091C19.5126 17.2091 19.7573 17.0336 20.3378 16.4531C21.5846 14.9326 22.6033 13.2386 23.3617 11.4244C23.4393 11.2065 23.586 11.0199 23.7795 10.8931C23.9729 10.7664 24.2026 10.7064 24.4333 10.7224H26.8954C27.6328 10.7224 27.7898 11.0919 27.6328 11.6184C26.7376 13.6239 25.6299 15.5276 24.3287 17.2969C24.0637 17.7019 23.9574 17.9128 24.3287 18.387C24.5734 18.7566 25.4357 19.4771 26.0162 20.1622C26.8598 21.0037 27.5603 21.9773 28.0901 23.0445C28.3011 23.7296 27.9484 24.0806 27.2464 24.0806Z" fill="white"/>
</svg>
